<svg width="44" height="45" viewBox="0 0 44 45" fill="none" xmlns="http://www.w3.org/2000/svg">
<g filter="url(#filter0_d_509_5137)">
<circle cx="21.7469" cy="18.4364" r="17.7469" fill="#EDE1FF"/>
<path fill-rule="evenodd" clip-rule="evenodd" d="M18.0674 11.0099C16.1839 11.2805 14.6249 12.0138 13.3556 13.2261C12.6413 13.9083 12.0918 14.6599 11.6693 15.5325C11.1095 16.6885 10.8379 17.844 10.8379 19.0693C10.8379 20.2946 11.1095 21.4501 11.6693 22.6061C12.7787 24.8972 14.9063 26.518 17.4821 27.0344C17.9201 27.1223 18.1062 27.1343 19.0284 27.1343C19.9513 27.1343 20.1366 27.1223 20.576 27.0342C22.5332 26.6419 24.3262 25.5383 25.5206 23.991C26.4981 22.7247 27.0483 21.2813 27.1827 19.6305C27.2272 19.0854 27.2245 18.9512 27.1623 18.6143C26.981 17.6322 26.2729 16.8183 25.3352 16.5142C24.8717 16.364 24.1124 16.364 23.6489 16.5142C22.5279 16.8778 21.7586 17.9538 21.7586 19.1721C21.7586 20.2401 20.9488 21.2976 19.8618 21.6493C19.3569 21.8126 18.7 21.8126 18.1951 21.6493C17.2874 21.3556 16.597 20.6134 16.3583 19.6747C16.2537 19.2634 16.2986 18.1979 16.4511 17.4692C16.7222 16.1743 17.3038 14.9492 18.1169 13.9608C18.4797 13.5197 19.291 12.7661 19.7505 12.4434C20.1608 12.1552 21.065 11.6694 21.4638 11.5228C21.5779 11.4809 21.6713 11.4324 21.6713 11.4151C21.6713 11.3753 20.98 11.1829 20.4918 11.0868C20.1334 11.0162 18.405 10.9614 18.0674 11.0099Z" fill="#54259F"/>
<path fill-rule="evenodd" clip-rule="evenodd" d="M25.4267 27.1158C27.3103 26.8452 28.8692 26.1119 30.1385 24.8997C30.8528 24.2175 31.4023 23.4659 31.8249 22.5933C32.3846 21.4373 32.6562 20.2817 32.6562 19.0565C32.6562 17.8312 32.3846 16.6757 31.8249 15.5197C30.7155 13.2286 28.5879 11.6077 26.0121 11.0913C25.574 11.0035 25.3879 10.9914 24.4657 10.9914C23.5428 10.9914 23.3575 11.0034 22.9182 11.0915C20.961 11.4839 19.168 12.5874 17.9735 14.1347C16.9961 15.401 16.4459 16.8444 16.3114 18.4952C16.267 19.0404 16.2697 19.1745 16.3319 19.5115C16.5132 20.4936 17.2213 21.3075 18.1589 21.6115C18.6224 21.7618 19.3882 21.7618 19.8517 21.6115C20.9728 21.248 21.7355 20.1719 21.7355 18.9536C21.7355 17.8857 22.5453 16.8281 23.6323 16.4765C24.1372 16.3131 24.7941 16.3131 25.2991 16.4765C26.2068 16.7701 26.8972 17.5123 27.1359 18.451C27.2404 18.8623 27.1956 19.9278 27.043 20.6565C26.7719 21.9515 26.1903 23.1765 25.3772 24.165C25.0144 24.606 24.2031 25.3596 23.7437 25.6823C23.3333 25.9705 22.4291 26.4564 22.0304 26.6029C21.9162 26.6448 21.8229 26.6933 21.8229 26.7106C21.8229 26.7504 22.5141 26.9428 23.0023 27.039C23.3608 27.1095 25.0891 27.1644 25.4267 27.1158Z" fill="#C393F2"/>
</g>
<defs>
<filter id="filter0_d_509_5137" x="0" y="0.689453" width="43.4941" height="43.4939" filterUnits="userSpaceOnUse" color-interpolation-filters="sRGB">
<feFlood flood-opacity="0" result="BackgroundImageFix"/>
<feColorMatrix in="SourceAlpha" type="matrix" values="0 0 0 0 0 0 0 0 0 0 0 0 0 0 0 0 0 0 127 0" result="hardAlpha"/>
<feOffset dy="4"/>
<feGaussianBlur stdDeviation="2"/>
<feComposite in2="hardAlpha" operator="out"/>
<feColorMatrix type="matrix" values="0 0 0 0 0 0 0 0 0 0 0 0 0 0 0 0 0 0 0.25 0"/>
<feBlend mode="normal" in2="BackgroundImageFix" result="effect1_dropShadow_509_5137"/>
<feBlend mode="normal" in="SourceGraphic" in2="effect1_dropShadow_509_5137" result="shape"/>
</filter>
</defs>
</svg>
