<svg width="39" height="29" viewBox="0 0 39 29" fill="none" xmlns="http://www.w3.org/2000/svg">
<path fill-rule="evenodd" clip-rule="evenodd" d="M12.6999 0.0324194C9.39108 0.504952 6.65259 1.78507 4.42286 3.90146C3.16806 5.09249 2.20272 6.40462 1.46045 7.92806C0.477147 9.94623 0 11.9636 0 14.1027C0 16.2418 0.477147 18.2591 1.46045 20.2773C3.40932 24.2771 7.14677 27.1068 11.6716 28.0085C12.4411 28.1618 12.768 28.1828 14.3881 28.1828C16.0092 28.1828 16.3347 28.1619 17.1066 28.0081C20.5447 27.3231 23.6945 25.3965 25.7927 22.6952C27.5097 20.4845 28.4763 17.9646 28.7125 15.0825C28.7905 14.1308 28.7858 13.8966 28.6765 13.3083C28.358 11.5937 27.1141 10.1728 25.467 9.64206C24.6528 9.37971 23.3189 9.37971 22.5048 9.64206C20.5354 10.2767 19.1841 12.1553 19.1841 14.2822C19.1841 16.1467 17.7616 17.9929 15.8521 18.6069C14.9651 18.8921 13.8111 18.8921 12.9241 18.6069C11.3296 18.0943 10.1168 16.7985 9.69749 15.1596C9.51379 14.4417 9.59259 12.5814 9.86056 11.3093C10.3368 9.04851 11.3585 6.90977 12.7868 5.18415C13.4241 4.41416 14.8493 3.09848 15.6565 2.53513C16.3773 2.03194 17.9656 1.18374 18.6661 0.927883C18.8667 0.854727 19.0306 0.770095 19.0306 0.739897C19.0306 0.67044 17.8164 0.334481 16.9588 0.166652C16.3291 0.0434419 13.2929 -0.0522876 12.6999 0.0324194Z" fill="#54259F"/>
<path fill-rule="evenodd" clip-rule="evenodd" d="M25.6282 28.1504C28.937 27.6779 31.6755 26.3978 33.9053 24.2814C35.1601 23.0904 36.1254 21.7782 36.8677 20.2548C37.851 18.2366 38.3281 16.2193 38.3281 14.0802C38.3281 11.9411 37.851 9.92371 36.8677 7.90554C34.9188 3.90574 31.1814 1.07606 26.6565 0.174402C25.887 0.0210705 25.5601 8.39233e-05 23.94 8.39233e-05C22.3189 8.39233e-05 21.9934 0.0209961 21.2216 0.174782C17.7834 0.85976 14.6337 2.78636 12.5355 5.48769C10.8184 7.69838 9.85184 10.2183 9.61564 13.1004C9.5376 14.0521 9.54236 14.2863 9.65163 14.8745C9.97009 16.5891 11.214 18.0101 12.8611 18.5408C13.6753 18.8032 15.0207 18.8032 15.8348 18.5408C17.8042 17.9062 19.144 16.0275 19.144 13.9006C19.144 12.0362 20.5665 10.1899 22.4761 9.57598C23.3631 9.29075 24.517 9.29075 25.404 9.57598C26.9985 10.0886 28.2113 11.3843 28.6306 13.0232C28.8143 13.7412 28.7355 15.6014 28.4676 16.8735C27.9913 19.1344 26.9696 21.2731 25.5413 22.9987C24.904 23.7687 23.4788 25.0844 22.6717 25.6477C21.9508 26.1509 20.3625 26.9991 19.662 27.255C19.4615 27.3281 19.2975 27.4128 19.2975 27.443C19.2975 27.5124 20.5118 27.8484 21.3694 28.0162C21.9991 28.1394 25.0352 28.2351 25.6282 28.1504Z" fill="#C393F2"/>
</svg>
