<svg width="126" height="283" viewBox="0 0 126 283" fill="none" xmlns="http://www.w3.org/2000/svg">
<path d="M90.513 252.932C92.0547 254.34 93.6177 255.752 95.2046 257.142C95.6399 257.534 95.7179 258.235 95.3437 258.704C94.9695 259.172 94.3099 259.265 93.8745 258.872C92.2662 257.48 90.6817 256.066 89.1425 254.635C88.7072 254.243 88.653 253.521 89.0486 253.055C89.2751 252.755 89.6347 252.632 89.9561 252.665C90.1704 252.688 90.356 252.777 90.5345 252.934L90.513 252.932ZM98.6828 263.003C100.296 264.35 101.93 265.699 103.589 267.028C104.048 267.4 104.708 267.307 105.065 266.791C105.42 266.297 105.321 265.594 104.862 265.223C103.225 263.896 101.588 262.569 99.9962 261.225C99.8368 261.092 99.6512 261.004 99.4583 260.983C99.1155 260.947 98.7535 261.094 98.5246 261.416C98.1694 261.91 98.226 262.609 98.6852 262.98L98.6828 263.003ZM63.5446 225.091C63.266 225.062 62.9754 225.147 62.7348 225.376C62.3011 225.792 62.2481 226.502 62.6334 226.958C64.001 228.58 65.3901 230.203 66.8005 231.829C67.1859 232.285 67.8573 232.287 68.291 231.871C68.7247 231.454 68.7349 230.74 68.3495 230.284C66.9367 228.681 65.569 227.059 64.2228 225.44C64.0516 225.214 63.8041 225.096 63.547 225.069L63.5446 225.091ZM92.6929 24.7001C94.2655 26.0199 95.8548 27.3876 97.4607 28.8032C97.8961 29.1953 98.5533 29.1258 98.949 28.6595C99.3232 28.1909 99.2666 27.4923 98.8337 27.0773C97.2087 25.6366 95.6004 24.2439 94.0277 22.9241C93.8683 22.7919 93.6803 22.726 93.4875 22.7057C93.1447 22.6696 92.7826 22.8163 92.5538 23.1385C92.1986 23.6322 92.2766 24.3331 92.7143 24.7023L92.6929 24.7001ZM108.576 270.9C110.239 272.183 111.926 273.446 113.637 274.688C114.12 275.039 114.763 274.899 115.097 274.403C115.433 273.884 115.31 273.201 114.848 272.853C113.159 271.613 111.472 270.35 109.827 269.092C109.666 268.983 109.499 268.919 109.328 268.901C108.963 268.863 108.599 269.033 108.37 269.355C108.036 269.851 108.136 270.554 108.597 270.903L108.576 270.9ZM71.9599 234.681C71.66 234.649 71.3456 234.755 71.1239 235.008C70.7093 235.45 70.7015 236.141 71.0892 236.575C72.5283 238.134 73.9675 239.694 75.4519 241.235C75.8634 241.648 76.5348 241.649 76.9281 241.206C77.3427 240.765 77.3314 240.048 76.9199 239.635C75.4569 238.096 74.0155 236.559 72.5763 234.999C72.4027 234.796 72.1742 234.703 71.9385 234.678L71.9599 234.681ZM106.62 37.5007C107.031 37.9134 107.705 37.8919 108.098 37.4484C108.492 37.0049 108.48 36.288 108.069 35.8753C106.542 34.3294 105.007 32.852 103.511 31.4249C103.332 31.2676 103.125 31.1765 102.932 31.1562C102.611 31.1224 102.273 31.2485 102.049 31.5251C101.653 31.9915 101.688 32.6878 102.121 33.1028C103.618 34.5299 105.131 36.005 106.639 37.5258L106.62 37.5007ZM81.3826 244.168C81.2065 243.988 80.9995 243.897 80.7853 243.874C80.4639 243.84 80.147 243.969 79.904 244.22C79.5107 244.664 79.522 245.381 79.9335 245.793C81.4227 247.289 82.9572 248.766 84.4916 250.244C84.9031 250.656 85.5793 250.612 85.975 250.146C86.3706 249.679 86.3355 248.983 85.9026 248.568C84.3657 247.114 82.8527 245.638 81.385 244.145L81.3826 244.168ZM115.357 46.7081C115.766 47.1436 116.414 47.1655 116.85 46.7265C117.264 46.2852 117.294 45.5956 116.887 45.1373C115.431 43.5297 113.971 41.9677 112.548 40.456C112.372 40.2758 112.146 40.1597 111.932 40.1372C111.632 40.1056 111.317 40.2111 111.074 40.4626C110.66 40.9039 110.671 41.6208 111.082 42.0335C112.505 43.5453 113.947 45.0821 115.402 46.6898L115.357 46.7081ZM3.83007 91.6651C3.56294 89.4667 3.33626 87.2956 3.15003 85.1519C3.09812 84.6154 2.70798 84.205 2.21517 84.1532C2.15089 84.1464 2.06524 84.1374 2.00096 84.1306C1.43186 84.1863 1.00518 84.7417 1.04989 85.3467C1.23371 87.5133 1.45559 89.73 1.72032 91.9512C1.78646 92.5585 2.30513 92.9825 2.89806 92.9063C3.46955 92.8278 3.87717 92.2473 3.81103 91.64L3.83007 91.6651ZM2.71291 78.595C2.59817 76.3895 2.5477 74.1908 2.51386 72.04C2.5096 71.4624 2.10284 71.004 1.5886 70.9499C1.54575 70.9454 1.50289 70.9409 1.46004 70.9364C0.87432 70.9441 0.409577 71.4494 0.43046 72.075C0.438071 74.2692 0.509965 76.4701 0.619907 78.7213C0.643191 79.324 1.15466 79.8165 1.72376 79.7609C2.31188 79.7304 2.7362 79.1978 2.71531 78.5722L2.71291 78.595ZM118.793 278.393C120.509 279.589 122.246 280.788 124.007 281.966C124.492 282.294 125.137 282.131 125.452 281.61C125.767 281.089 125.622 280.404 125.137 280.076C123.397 278.9 121.658 277.725 119.964 276.531C119.823 276.423 119.654 276.383 119.504 276.367C119.14 276.328 118.752 276.519 118.521 276.864C118.206 277.385 118.329 278.067 118.812 278.418L118.793 278.393ZM5.80452 104.618C5.40403 102.451 5.04637 100.29 4.70776 98.1529C4.62962 97.6598 4.23469 97.2951 3.78473 97.2478C3.69903 97.2387 3.59188 97.2275 3.50138 97.2641C2.92748 97.3654 2.54126 97.9482 2.62883 98.5577C2.96504 100.717 3.32265 102.879 3.74217 105.07C3.85116 105.682 4.3961 106.063 4.97239 105.938C5.54869 105.814 5.91351 105.229 5.80452 104.618ZM2.59575 65.4915C2.67625 63.2835 2.79962 61.0799 2.95861 58.9494C3.02104 58.3557 2.60003 57.8266 2.02152 57.7658L2.00013 57.7635C1.42162 57.7027 0.916433 58.1806 0.873037 58.7994C0.709236 60.9756 0.583468 63.202 0.498171 65.4557C0.476201 66.0768 0.942402 66.5875 1.50429 66.6004C2.08761 66.6156 2.57138 66.1354 2.59335 65.5143L2.59575 65.4915ZM7.10365 111.011C7.00168 110.539 6.6258 110.199 6.19727 110.154C6.09014 110.143 5.96158 110.129 5.84725 110.186C5.28997 110.336 4.9228 110.943 5.05562 111.535C5.50376 113.66 6.01379 115.814 6.54525 117.971C6.69949 118.565 7.26822 118.925 7.8279 118.753C8.38757 118.581 8.73333 117.97 8.57908 117.377C8.04523 115.243 7.57563 113.116 7.10365 111.011ZM23.4297 160.336C23.2729 159.973 22.9493 159.754 22.6064 159.718C22.4136 159.698 22.2159 159.724 22.0325 159.82C21.5061 160.088 21.2841 160.757 21.5288 161.314C22.4057 163.276 23.323 165.266 24.2642 167.235C24.5303 167.794 25.1587 167.998 25.6661 167.705C26.1949 167.415 26.3955 166.743 26.1269 166.207C25.1858 164.238 24.2851 162.296 23.4083 160.334L23.4297 160.336ZM13.9937 136.14C13.8631 135.734 13.5014 135.465 13.1157 135.424C12.9657 135.409 12.8109 135.438 12.6537 135.491C12.1107 135.711 11.8268 136.351 12.0049 136.924C12.6983 138.982 13.4132 141.043 14.1471 143.129C14.3466 143.704 14.9677 143.977 15.5108 143.757C16.0538 143.537 16.3188 142.872 16.1193 142.297C15.383 140.234 14.6657 138.196 13.9913 136.163L13.9937 136.14ZM49.1552 2.59862C51.105 2.80361 53.1023 3.17522 55.1304 3.6655C55.6803 3.79258 56.2615 3.41502 56.3882 2.82804C56.5173 2.21823 56.1679 1.62738 55.618 1.5003C53.5042 1.001 51.4212 0.62039 49.3857 0.406388C48.8071 0.345566 48.2829 0.798366 48.2205 1.3921C48.1557 2.00868 48.5528 2.5584 49.1313 2.61922L49.1552 2.59862ZM82.752 17.0517C84.4057 18.2183 86.0951 19.458 87.7773 20.7662C88.2389 21.1149 88.9009 20.9998 89.2347 20.5038C89.5684 20.0079 89.4691 19.3048 89.0075 18.9561C87.2848 17.6206 85.574 16.3786 83.9012 15.1869C83.7608 15.0798 83.5918 15.0389 83.4418 15.0231C83.0776 14.9848 82.6893 15.1749 82.4581 15.52C82.1434 16.0411 82.2666 16.7236 82.7496 17.0745L82.752 17.0517ZM25.9459 7.82394C27.6683 6.68898 29.4596 5.72287 31.3413 4.92789C31.8843 4.70792 32.1492 4.04312 31.9497 3.46802C31.7977 3.05954 31.455 2.81571 31.0908 2.77742C30.9194 2.7594 30.7646 2.78933 30.6074 2.84207C28.6352 3.67371 26.6843 4.71537 24.869 5.90983C24.3806 6.2279 24.2205 6.9268 24.5129 7.4424C24.8268 7.96026 25.4599 8.11915 25.9483 7.80108L25.9459 7.82394ZM8.90517 122.929C8.3455 123.102 8.0188 123.737 8.19447 124.332C8.77597 126.425 9.37649 128.543 10.0223 130.643C10.2003 131.216 10.7953 131.532 11.3359 131.335C11.898 131.14 12.1819 130.501 12.0039 129.928C11.3581 127.828 10.7527 125.756 10.1926 123.665C10.0668 123.213 9.7076 122.921 9.30049 122.879C9.17194 122.865 9.01955 122.872 8.88379 122.927L8.90517 122.929ZM16.4727 149.238C17.2567 151.26 18.0835 153.286 18.9317 155.315C19.155 155.869 19.7786 156.119 20.305 155.852C20.8315 155.584 21.0725 154.939 20.8277 154.383C19.9771 152.377 19.1693 150.376 18.4068 148.356C18.2523 147.97 17.9311 147.729 17.5455 147.688C17.3741 147.67 17.1979 147.698 17.0383 147.773C16.4928 148.016 16.2494 148.683 16.4727 149.238ZM8.97613 27.8816C9.51161 28.1456 10.1213 27.9096 10.3766 27.3362C11.2807 25.3302 12.2609 23.4245 13.3172 21.6192C13.632 21.0982 13.4874 20.4134 12.9805 20.0831C12.8377 19.9988 12.6926 19.9373 12.5426 19.9216C12.1569 19.881 11.7687 20.0711 11.535 20.439C10.4286 22.3083 9.4173 24.3031 8.48454 26.3753C8.23168 26.9259 8.44304 27.5946 8.97853 27.8587L8.97613 27.8816ZM2.43964 53.3767C3.05861 53.4649 3.53756 53.0304 3.62381 52.4161C3.92097 50.2077 4.25614 48.0495 4.66986 45.9689C4.77753 45.3568 4.42565 44.7888 3.85433 44.6595C3.83291 44.6572 3.79011 44.6527 3.76868 44.6505C3.23302 44.5941 2.73742 44.9807 2.63455 45.5471C2.21603 47.6734 1.87365 49.9001 1.57409 52.1313C1.50926 52.7479 1.88498 53.2953 2.4611 53.379L2.43964 53.3767ZM37.0976 3.13191C39.0265 2.71131 41.0458 2.46181 43.0911 2.37669C43.6792 2.34617 44.1225 1.83864 44.123 1.21531C44.1164 0.660487 43.7096 0.202145 43.1954 0.148082C43.1525 0.143576 43.1097 0.139076 43.0454 0.132318C40.8906 0.229011 38.7404 0.487797 36.7019 0.919963C36.1256 1.04408 35.7608 1.62913 35.8698 2.24089C35.9788 2.85265 36.5237 3.23314 37.1 3.10902L37.0976 3.13191ZM4.80094 40.3953C5.34842 40.5452 5.94871 40.1927 6.09684 39.608C6.64632 37.4723 7.30056 35.3708 7.98562 33.3879C8.19802 32.81 7.91759 32.1802 7.37731 31.9618C7.2916 31.9527 7.20832 31.9209 7.12261 31.9119C6.65123 31.8623 6.18668 32.1598 6.02673 32.651C5.31304 34.7001 4.67549 36.8495 4.09738 39.0514C3.94685 39.659 4.27249 40.2704 4.81998 40.4204L4.80094 40.3953ZM15.3884 16.5497C15.8238 16.9418 16.5023 16.8746 16.8575 16.3809C18.1614 14.694 19.5842 13.112 21.0521 11.7193C21.4858 11.3032 21.5388 10.593 21.1535 10.1369C20.9798 9.93393 20.7347 9.7927 20.4776 9.76566C20.199 9.73638 19.9085 9.82129 19.6678 10.05C18.1047 11.5249 16.608 13.1915 15.2302 14.963C14.856 15.4317 14.9101 16.1531 15.3693 16.5246L15.3884 16.5497ZM46.9989 206.497C48.2212 208.265 49.4672 210.012 50.7347 211.762C51.0962 212.239 51.7366 212.329 52.2108 211.94C52.6635 211.549 52.757 210.866 52.3979 210.367C51.128 208.64 49.9033 206.895 48.7001 205.152C48.5098 204.902 48.2456 204.735 47.9671 204.706C47.71 204.679 47.4433 204.743 47.2288 204.928C46.7571 205.294 46.6612 206 46.9989 206.497ZM72.1744 10.5138C73.9354 11.484 75.7321 12.5271 77.5216 13.6388C78.0094 13.9441 78.6573 13.7582 78.972 13.2372C79.2653 12.7139 79.0992 12.0268 78.6114 11.7216C76.7814 10.5825 74.9443 9.51203 73.1428 8.51453C73.019 8.45534 72.8929 8.419 72.7643 8.40548C72.3572 8.36268 71.9213 8.59391 71.7257 9.01203C71.4514 9.56041 71.6627 10.2291 72.1744 10.5138ZM55.5176 215.105C55.2605 215.078 54.9699 215.162 54.7555 215.348C54.3027 215.739 54.2283 216.447 54.5898 216.923C55.8836 218.629 57.2011 220.315 58.5401 222.003C58.9016 222.479 59.5682 222.526 60.0233 222.112C60.476 221.721 60.5291 221.011 60.1461 220.532C58.8047 218.867 57.5086 217.184 56.2125 215.501C56.0412 215.275 55.7747 215.132 55.5176 215.105ZM30.1016 178.885C30.3916 179.423 31.0224 179.605 31.5322 179.289C32.042 178.973 32.2211 178.3 31.9311 177.761C30.9185 175.854 29.9059 173.946 28.9576 172.046C28.7983 171.706 28.4723 171.51 28.1509 171.476C27.9367 171.454 27.7366 171.502 27.5294 171.619C27.022 171.912 26.8189 172.606 27.1089 173.144C28.0763 175.07 29.0866 177 30.1206 178.91L30.1016 178.885ZM34.2529 182.877C34.0386 182.854 33.7957 182.898 33.6075 183.04C33.1191 183.358 32.9375 184.055 33.2514 184.573C34.3117 186.439 35.3933 188.307 36.5179 190.18C36.8317 190.698 37.4673 190.834 37.9557 190.516C38.4465 190.175 38.5828 189.497 38.2904 188.981C37.1849 187.133 36.1031 185.265 35.0619 183.424C34.8788 183.104 34.5932 182.936 34.2718 182.902L34.2529 182.877ZM60.9455 5.4313C62.8044 6.0885 64.7156 6.86665 66.6387 7.7384C67.1766 7.97965 67.7887 7.72075 68.0226 7.14504C68.2564 6.56932 68.0212 5.92122 67.4834 5.67996C65.5199 4.78088 63.5443 3.99599 61.6235 3.30919C61.5378 3.30018 61.476 3.2706 61.3903 3.26159C60.9189 3.21203 60.4543 3.50949 60.292 4.02346C60.101 4.60368 60.4028 5.23571 60.9455 5.4313ZM43.3798 201.153C43.7174 201.65 44.3769 201.766 44.8486 201.4C45.3204 201.034 45.4352 200.353 45.0999 199.833C43.9229 198.047 42.7483 196.238 41.6166 194.433C41.4311 194.137 41.1646 193.993 40.8646 193.962C40.6289 193.937 40.3836 194.004 40.174 194.143C39.6832 194.484 39.5659 195.188 39.8798 195.705C41.0091 197.533 42.1837 199.342 43.3798 201.153Z" fill="#7C45D0"/>
</svg>
