<svg width="184" height="177" viewBox="0 0 184 177" fill="none" xmlns="http://www.w3.org/2000/svg">
<g clip-path="url(#clip0_509_5173)">
<path d="M179.019 128.32C180.459 128.32 181.629 129.5 181.629 130.95C181.629 132.4 180.459 133.58 179.019 133.58C177.579 133.58 176.409 132.4 176.409 130.95C176.409 129.5 177.579 128.32 179.019 128.32Z" fill="#FACD49"/>
<path d="M134.359 133.58C132.917 133.58 131.749 132.403 131.749 130.95C131.749 129.498 132.917 128.32 134.359 128.32C135.8 128.32 136.969 129.498 136.969 130.95C136.969 132.403 135.8 133.58 134.359 133.58Z" fill="#FACD49"/>
<path d="M156.689 128.32C158.129 128.32 159.299 129.5 159.299 130.95C159.299 132.4 158.129 133.58 156.689 133.58C155.249 133.58 154.079 132.4 154.079 130.95C154.079 129.5 155.249 128.32 156.689 128.32Z" fill="#FACD49"/>
<path d="M157.06 106.94C158.5 106.94 159.67 108.12 159.67 109.57C159.67 111.02 158.5 112.2 157.06 112.2C155.62 112.2 154.45 111.02 154.45 109.57C154.45 108.12 155.62 106.94 157.06 106.94Z" fill="#FACD49"/>
<path d="M179.39 106.94C180.83 106.94 182 108.12 182 109.57C182 111.02 180.83 112.2 179.39 112.2C177.95 112.2 176.78 111.02 176.78 109.57C176.78 108.12 177.95 106.94 179.39 106.94Z" fill="#FACD49"/>
<path d="M112.4 106.94C113.84 106.94 115.01 108.12 115.01 109.57C115.01 111.02 113.84 112.2 112.4 112.2C110.96 112.2 109.79 111.02 109.79 109.57C109.79 108.12 110.96 106.94 112.4 106.94Z" fill="#FACD49"/>
<path d="M134.73 106.94C136.17 106.94 137.34 108.12 137.34 109.57C137.34 111.02 136.17 112.2 134.73 112.2C133.29 112.2 132.12 111.02 132.12 109.57C132.12 108.12 133.29 106.94 134.73 106.94Z" fill="#FACD49"/>
<path d="M179.019 171.1C180.459 171.1 181.629 172.28 181.629 173.73C181.629 175.18 180.459 176.36 179.019 176.36C177.579 176.36 176.409 175.18 176.409 173.73C176.409 172.28 177.579 171.1 179.019 171.1Z" fill="#FACD49"/>
<path d="M157.06 149.71C158.5 149.71 159.67 150.89 159.67 152.34C159.67 153.79 158.5 154.97 157.06 154.97C155.62 154.97 154.45 153.79 154.45 152.34C154.45 150.89 155.62 149.71 157.06 149.71Z" fill="#FACD49"/>
<path d="M179.39 149.71C180.83 149.71 182 150.89 182 152.34C182 153.79 180.83 154.97 179.39 154.97C177.95 154.97 176.78 153.79 176.78 152.34C176.78 150.89 177.95 149.71 179.39 149.71Z" fill="#FACD49"/>
<path d="M90.4388 85.55C91.8788 85.55 93.0488 86.73 93.0488 88.18C93.0488 89.63 91.8788 90.81 90.4388 90.81C88.9988 90.81 87.8288 89.63 87.8288 88.18C87.8288 86.73 88.9988 85.55 90.4388 85.55Z" fill="#FACD49"/>
<path d="M135.099 85.55C136.539 85.55 137.709 86.73 137.709 88.18C137.709 89.63 136.539 90.81 135.099 90.81C133.659 90.81 132.489 89.63 132.489 88.18C132.489 86.73 133.659 85.55 135.099 85.55Z" fill="#FACD49"/>
<path d="M112.769 90.81C111.327 90.81 110.159 89.6325 110.159 88.18C110.159 86.7275 111.327 85.55 112.769 85.55C114.21 85.55 115.379 86.7275 115.379 88.18C115.379 89.6325 114.21 90.81 112.769 90.81Z" fill="#FACD49"/>
<path d="M157.439 85.55C158.879 85.55 160.049 86.73 160.049 88.18C160.049 89.63 158.879 90.81 157.439 90.81C155.999 90.81 154.829 89.63 154.829 88.18C154.829 86.73 155.989 85.55 157.439 85.55Z" fill="#FACD49"/>
<path d="M179.769 85.55C181.209 85.55 182.379 86.73 182.379 88.18C182.379 89.63 181.209 90.81 179.769 90.81C178.329 90.81 177.159 89.63 177.159 88.18C177.159 86.73 178.329 85.55 179.769 85.55Z" fill="#FACD49"/>
<path d="M90.8197 64.16C92.2597 64.16 93.4297 65.34 93.4297 66.79C93.4297 68.24 92.2597 69.42 90.8197 69.42C89.3797 69.42 88.2097 68.24 88.2097 66.79C88.2097 65.34 89.3797 64.16 90.8197 64.16Z" fill="#FACD49"/>
<path d="M113.15 64.16C114.59 64.16 115.76 65.34 115.76 66.79C115.76 68.24 114.59 69.42 113.15 69.42C111.71 69.42 110.54 68.24 110.54 66.79C110.54 65.34 111.71 64.16 113.15 64.16Z" fill="#FACD49"/>
<path d="M135.48 64.16C136.92 64.16 138.09 65.34 138.09 66.79C138.09 68.24 136.92 69.42 135.48 69.42C134.04 69.42 132.87 68.24 132.87 66.79C132.87 65.34 134.04 64.16 135.48 64.16Z" fill="#FACD49"/>
<path d="M68.4798 64.16C69.9198 64.16 71.0898 65.34 71.0898 66.79C71.0898 68.24 69.9198 69.42 68.4798 69.42C67.0398 69.42 65.8698 68.24 65.8698 66.79C65.8698 65.34 67.0398 64.16 68.4798 64.16Z" fill="#FACD49"/>
<path d="M180.14 64.16C181.58 64.16 182.75 65.34 182.75 66.79C182.75 68.24 181.58 69.42 180.14 69.42C178.7 69.42 177.53 68.24 177.53 66.79C177.53 65.34 178.7 64.16 180.14 64.16Z" fill="#FACD49"/>
<path d="M157.81 64.16C159.25 64.16 160.42 65.34 160.42 66.79C160.42 68.24 159.25 69.42 157.81 69.42C156.37 69.42 155.2 68.24 155.2 66.79C155.2 65.34 156.37 64.16 157.81 64.16Z" fill="#FACD49"/>
<path d="M180.509 42.77C181.949 42.77 183.119 43.95 183.119 45.4C183.119 46.85 181.949 48.03 180.509 48.03C179.069 48.03 177.899 46.85 177.899 45.4C177.899 43.95 179.069 42.77 180.509 42.77Z" fill="#FACD49"/>
<path d="M91.1888 48.03C89.7474 48.03 88.5788 46.8525 88.5788 45.4C88.5788 43.9475 89.7474 42.77 91.1888 42.77C92.6303 42.77 93.7988 43.9475 93.7988 45.4C93.7988 46.8525 92.6303 48.03 91.1888 48.03Z" fill="#FACD49"/>
<path d="M46.5287 48.03C45.0872 48.03 43.9187 46.8525 43.9187 45.4C43.9187 43.9475 45.0872 42.77 46.5287 42.77C47.9701 42.77 49.1387 43.9475 49.1387 45.4C49.1387 46.8525 47.9701 48.03 46.5287 48.03Z" fill="#FACD49"/>
<path d="M113.519 42.77C114.959 42.77 116.129 43.95 116.129 45.4C116.129 46.85 114.959 48.03 113.519 48.03C112.079 48.03 110.909 46.85 110.909 45.4C110.909 43.95 112.079 42.77 113.519 42.77Z" fill="#FACD49"/>
<path d="M135.849 42.77C137.289 42.77 138.459 43.95 138.459 45.4C138.459 46.85 137.289 48.03 135.849 48.03C134.409 48.03 133.239 46.85 133.239 45.4C133.239 43.95 134.409 42.77 135.849 42.77Z" fill="#FACD49"/>
<path d="M158.179 42.77C159.619 42.77 160.789 43.95 160.789 45.4C160.789 46.85 159.619 48.03 158.179 48.03C156.739 48.03 155.569 46.85 155.569 45.4C155.569 43.95 156.739 42.77 158.179 42.77Z" fill="#FACD49"/>
<path d="M68.8587 42.77C70.2987 42.77 71.4688 43.95 71.4688 45.4C71.4688 46.85 70.2987 48.03 68.8587 48.03C67.4187 48.03 66.2487 46.85 66.2487 45.4C66.2487 43.95 67.4187 42.77 68.8587 42.77Z" fill="#FACD49"/>
<path d="M180.88 26.64C179.439 26.64 178.27 25.4625 178.27 24.01C178.27 22.5575 179.439 21.38 180.88 21.38C182.322 21.38 183.49 22.5575 183.49 24.01C183.49 25.4625 182.322 26.64 180.88 26.64Z" fill="#FACD49"/>
<path d="M69.2298 21.39C70.6698 21.39 71.8398 22.57 71.8398 24.02C71.8398 25.47 70.6698 26.65 69.2298 26.65C67.7898 26.65 66.6198 25.47 66.6198 24.02C66.6198 22.57 67.7898 21.39 69.2298 21.39Z" fill="#FACD49"/>
<path d="M158.55 21.39C159.99 21.39 161.16 22.57 161.16 24.02C161.16 25.47 159.99 26.65 158.55 26.65C157.11 26.65 155.94 25.47 155.94 24.02C155.94 22.57 157.11 21.39 158.55 21.39Z" fill="#FACD49"/>
<path d="M113.89 21.39C115.33 21.39 116.5 22.57 116.5 24.02C116.5 25.47 115.33 26.65 113.89 26.65C112.45 26.65 111.28 25.47 111.28 24.02C111.28 22.57 112.45 21.39 113.89 21.39Z" fill="#FACD49"/>
<path d="M136.22 21.39C137.66 21.39 138.83 22.57 138.83 24.02C138.83 25.47 137.66 26.65 136.22 26.65C134.78 26.65 133.61 25.47 133.61 24.02C133.61 22.57 134.78 21.39 136.22 21.39Z" fill="#FACD49"/>
<path d="M91.5599 21.39C92.9999 21.39 94.1699 22.57 94.1699 24.02C94.1699 25.47 92.9999 26.65 91.5599 26.65C90.1199 26.65 88.9499 25.47 88.9499 24.02C88.9499 22.57 90.1199 21.39 91.5599 21.39Z" fill="#FACD49"/>
<path d="M24.5697 21.39C26.0097 21.39 27.1797 22.57 27.1797 24.02C27.1797 25.47 26.0097 26.65 24.5697 26.65C23.1297 26.65 21.9597 25.47 21.9597 24.02C21.9597 22.57 23.1197 21.39 24.5697 21.39Z" fill="#FACD49"/>
<path d="M46.8998 21.39C48.3398 21.39 49.5098 22.57 49.5098 24.02C49.5098 25.47 48.3398 26.65 46.8998 26.65C45.4598 26.65 44.2898 25.47 44.2898 24.02C44.2898 22.57 45.4498 21.39 46.8998 21.39Z" fill="#FACD49"/>
<path d="M158.919 5.24999C157.479 5.24999 156.309 4.06999 156.309 2.61999C156.309 1.16999 157.479 -0.0100098 158.919 -0.0100098C160.359 -0.0100098 161.529 1.16999 161.529 2.61999C161.529 4.06999 160.359 5.24999 158.919 5.24999Z" fill="#FACD49"/>
<path d="M181.249 5.25C179.809 5.25 178.639 4.07 178.639 2.62C178.639 1.17 179.819 0 181.249 0C182.679 0 183.859 1.18 183.859 2.63C183.859 4.08 182.689 5.26 181.249 5.26V5.25Z" fill="#FACD49"/>
<path d="M24.9388 5.26C23.4974 5.26 22.3288 4.08251 22.3288 2.63C22.3288 1.17749 23.4974 0 24.9388 0C26.3803 0 27.5488 1.17749 27.5488 2.63C27.5488 4.08251 26.3803 5.26 24.9388 5.26Z" fill="#FACD49"/>
<path d="M91.9291 5.24999C90.4891 5.24999 89.3191 4.06999 89.3191 2.61999C89.3191 1.16999 90.4891 -0.0100098 91.9291 -0.0100098C93.3691 -0.0100098 94.5391 1.16999 94.5391 2.61999C94.5391 4.06999 93.3691 5.24999 91.9291 5.24999Z" fill="#FACD49"/>
<path d="M69.599 5.24999C68.159 5.24999 66.989 4.06999 66.989 2.61999C66.989 1.16999 68.159 -0.0100098 69.599 -0.0100098C71.039 -0.0100098 72.209 1.16999 72.209 2.61999C72.209 4.06999 71.039 5.24999 69.599 5.24999Z" fill="#FACD49"/>
<path d="M47.2689 5.24999C45.8289 5.24999 44.6589 4.06999 44.6589 2.61999C44.6589 1.16999 45.8289 -0.0100098 47.2689 -0.0100098C48.7089 -0.0100098 49.8789 1.16999 49.8789 2.61999C49.8789 4.06999 48.7089 5.24999 47.2689 5.24999Z" fill="#FACD49"/>
<path d="M136.589 5.24999C135.149 5.24999 133.979 4.06999 133.979 2.61999C133.979 1.16999 135.149 -0.0100098 136.589 -0.0100098C138.029 -0.0100098 139.199 1.16999 139.199 2.61999C139.199 4.06999 138.029 5.24999 136.589 5.24999Z" fill="#FACD49"/>
<path d="M2.60875 5.24999C1.16875 5.24999 -0.00125122 4.06999 -0.00125122 2.61999C-0.00125122 1.16999 1.15875 -0.0100098 2.60875 -0.0100098C4.05875 -0.0100098 5.21875 1.16999 5.21875 2.61999C5.21875 4.06999 4.04875 5.24999 2.60875 5.24999Z" fill="#FACD49"/>
<path d="M114.259 5.24999C112.819 5.24999 111.649 4.06999 111.649 2.61999C111.649 1.16999 112.819 -0.0100098 114.259 -0.0100098C115.699 -0.0100098 116.869 1.16999 116.869 2.61999C116.869 4.06999 115.699 5.24999 114.259 5.24999Z" fill="#FACD49"/>
</g>
<defs>
<clipPath id="clip0_509_5173">
<rect width="183.86" height="176.35" fill="white" transform="matrix(-1 0 0 1 183.859 0)"/>
</clipPath>
</defs>
</svg>
